<?xml version="1.0" standalone="no"?>
<!DOCTYPE svg PUBLIC "-//W3C//DTD SVG 20010904//EN"
 "http://www.w3.org/TR/2001/REC-SVG-20010904/DTD/svg10.dtd">
<svg version="1.0" xmlns="http://www.w3.org/2000/svg"
 width="1224.000000pt" height="1224.000000pt" viewBox="0 0 1224.000000 1224.000000"
 preserveAspectRatio="xMidYMid meet">

<g transform="translate(0.000000,1224.000000) scale(0.100000,-0.100000)"
fill="#000000" stroke="none">
<path d="M6299 11530 c-65 -16 -439 -221 -527 -288 l-34 -26 -100 102 c-122
125 -169 152 -265 152 -45 0 -82 -7 -109 -19 -41 -19 -245 -178 -377 -294
l-67 -59 -79 74 c-96 93 -140 112 -243 107 -117 -6 -136 -21 -383 -314 -119
-140 -218 -255 -222 -255 -3 0 -31 16 -62 35 -32 19 -92 51 -135 71 -71 34
-82 36 -149 32 -88 -6 -137 -28 -197 -88 -116 -116 -308 -386 -387 -544 -25
-50 -47 -93 -49 -95 -1 -1 -29 10 -61 25 -102 50 -204 33 -279 -48 -98 -104
-314 -555 -379 -790 l-16 -58 -57 0 c-65 0 -124 -24 -165 -66 -70 -70 -81
-137 -67 -407 5 -111 15 -231 20 -266 l11 -63 -40 -34 c-60 -52 -78 -100 -92
-244 -20 -217 -1 -532 47 -739 14 -62 14 -64 -6 -78 -62 -44 -100 -114 -100
-188 0 -90 49 -262 126 -447 l45 -107 -20 -28 c-30 -42 -44 -116 -30 -166 12
-46 160 -346 221 -450 l41 -67 -55 -58 c-203 -214 -311 -537 -279 -833 26
-239 129 -462 292 -634 188 -198 417 -308 702 -340 52 -6 61 -10 75 -37 32
-59 164 -264 220 -342 263 -365 662 -732 1087 -999 134 -84 524 -287 552 -287
33 0 6 -17 -65 -43 -43 -15 -87 -33 -97 -41 -17 -12 -26 -7 -94 63 -158 161
-278 194 -487 135 -96 -27 -97 -27 -128 -9 -183 109 -319 141 -500 115 -214
-30 -387 -182 -457 -400 -31 -93 -37 -266 -14 -359 l17 -70 -26 -64 c-14 -36
-33 -98 -41 -139 -8 -40 -31 -108 -51 -151 -72 -156 -99 -323 -70 -437 24 -95
52 -145 117 -215 90 -95 240 -165 355 -165 24 0 54 -4 68 -10 l26 -9 -7 -286
-6 -285 765 0 765 0 5 281 c6 300 1 351 -44 490 l-22 69 56 58 c71 73 102 120
172 260 l56 112 48 0 c75 1 197 26 257 54 75 34 136 86 181 154 21 31 41 61
45 65 3 5 29 -6 57 -23 224 -138 637 -163 901 -56 270 110 445 310 531 611
l26 90 210 -1 c229 -2 326 -15 419 -58 50 -23 60 -33 153 -173 55 -82 109
-169 122 -193 13 -25 36 -64 52 -87 l29 -43 -230 -452 c-126 -249 -239 -479
-251 -511 -12 -32 -24 -57 -26 -55 -4 5 50 269 75 366 10 39 18 72 16 72 -7 0
-69 -144 -101 -234 -54 -157 -61 -215 -56 -523 l4 -273 764 0 764 0 0 33 c0
57 49 370 84 539 19 89 44 225 57 301 l22 138 51 26 c205 103 375 288 402 438
4 22 25 81 48 130 l41 90 -3 160 c-3 233 -17 346 -48 409 -36 72 -95 146 -182
227 l-74 69 259 578 259 577 65 0 c46 0 76 6 109 22 l44 23 89 -36 c175 -69
427 -113 571 -100 267 25 537 108 748 231 l80 46 46 -15 c93 -32 233 -12 334
47 73 43 154 137 201 234 l42 88 0 310 0 310 -34 95 c-108 307 -366 693 -648
972 -135 134 -216 201 -359 297 -232 156 -503 275 -774 341 -52 13 -96 24 -98
25 -1 1 20 44 48 96 169 322 231 731 137 901 l-20 37 23 103 c52 224 14 535
-76 629 l-25 26 17 99 c24 142 24 347 1 399 -46 102 -110 161 -209 189 -55 17
-55 17 -62 63 -3 25 -6 64 -6 87 0 59 -27 228 -51 321 -40 157 -131 299 -223
348 -32 17 -58 22 -116 22 -65 -1 -83 -5 -139 -33 -34 -19 -64 -32 -66 -30 -1
2 -15 50 -29 108 -44 172 -125 348 -202 440 -52 61 -152 92 -231 71 -22 -6
-74 -35 -114 -65 l-73 -53 -88 195 c-48 107 -99 210 -113 228 -14 18 -50 45
-80 60 -74 35 -149 31 -229 -15 l-54 -31 -66 89 c-82 112 -136 165 -203 198
-46 22 -63 25 -130 21 -80 -4 -134 -23 -230 -82 l-41 -26 -12 37 c-24 74 -89
199 -126 242 -82 95 -202 116 -356 62 -46 -17 -150 -57 -233 -91 -82 -33 -155
-58 -161 -56 -6 2 -55 61 -108 130 -100 129 -136 165 -198 191 -47 19 -133 27
-179 15z m2850 -5234 c28 -26 26 -47 -6 -78 -60 -55 -225 -128 -292 -128 -37
0 -60 30 -53 67 8 41 90 117 153 142 68 27 167 25 198 -3z m241 -381 c154 -62
219 -166 175 -282 -36 -95 -207 -230 -384 -304 -104 -44 -208 -50 -266 -17
-79 46 -117 164 -91 286 34 164 125 269 281 325 64 23 218 18 285 -8z m-5401
-346 c217 -15 209 -13 216 -57 22 -133 96 -218 225 -256 144 -43 310 10 381
122 16 26 34 64 40 85 9 36 12 37 42 32 18 -3 75 -11 127 -18 113 -15 117 -21
67 -100 -63 -98 -132 -153 -258 -203 -162 -64 -654 -29 -827 59 -38 19 -86 55
-118 89 -58 61 -124 183 -124 230 0 26 3 28 41 28 23 0 107 -5 188 -11z m4468
-30 c-14 -103 -114 -237 -223 -299 -165 -93 -674 -133 -843 -66 -93 37 -140
68 -198 128 -53 57 -98 132 -90 152 4 10 189 41 246 41 8 0 19 -19 27 -43 28
-95 108 -170 210 -197 207 -54 401 58 428 248 4 26 8 47 9 48 8 3 316 26 371
28 l69 1 -6 -41z m-3705 -26 c40 -46 22 -112 -26 -99 -12 3 -45 11 -73 17 -49
11 -93 39 -93 59 0 5 7 16 16 24 23 24 155 22 176 -1z m2889 7 c23 -13 25 -43
4 -60 -26 -22 -155 -51 -176 -39 -27 14 -28 47 -3 87 13 19 23 22 85 22 39 0
79 -5 90 -10z m2050 -1382 c52 -17 88 -46 108 -86 l18 -37 -273 -610 c-151
-335 -294 -655 -320 -711 l-45 -101 -82 0 c-62 1 -93 -4 -129 -20 -56 -25
-157 -93 -209 -140 l-38 -35 -16 38 -15 37 412 824 c367 733 416 827 443 839
37 16 101 18 146 2z m-2913 -740 c-94 -115 -272 -298 -289 -298 -5 0 -9 64 -9
145 l0 144 43 11 c23 6 107 32 187 59 80 26 149 49 153 50 4 0 -34 -50 -85
-111z m-436 -215 c2 -117 -1 -182 -8 -191 -6 -7 -44 -26 -85 -42 l-74 -29 -6
42 c-4 23 -8 116 -10 207 l-4 165 75 11 c41 6 83 12 92 13 15 1 17 -17 20
-176z m-415 137 l81 0 6 -102 c3 -57 8 -152 11 -211 l6 -108 -28 7 c-121 28
-187 139 -200 338 l-6 89 24 -6 c13 -4 61 -7 106 -7z m2801 -314 l-142 -284
-40 22 c-33 17 -58 21 -132 21 -85 0 -95 -2 -170 -39 -97 -49 -222 -169 -271
-261 -37 -71 -70 -182 -78 -268 -10 -94 -11 -95 -51 -48 -38 44 -105 80 -276
147 -54 21 -98 41 -98 44 0 3 28 16 63 29 110 43 408 198 554 290 246 154 533
382 713 565 35 36 66 66 67 66 2 0 -61 -128 -139 -284z m-3419 -836 c20 -5 28
-18 42 -70 10 -36 18 -66 19 -67 0 -1 -24 9 -52 21 -29 13 -60 26 -69 29 -10
3 -18 21 -22 48 -8 64 -9 63 82 39z m1697 3 c-3 -10 -12 -46 -21 -80 -79 -313
-298 -541 -597 -623 -163 -44 -402 -44 -573 0 -84 21 -204 74 -243 106 -23 19
-23 21 -11 86 l12 66 51 -34 c63 -41 158 -77 259 -98 104 -22 370 -22 475 0
281 58 441 204 523 479 l27 90 43 11 c60 16 61 16 55 -3z m-1822 -19 c18 -47
14 -49 -122 -50 -99 -1 -150 -7 -232 -27 l-105 -26 -37 37 c-21 20 -38 39 -38
43 0 7 93 24 170 32 19 2 108 5 196 5 139 2 163 0 168 -14z m3305 -304 l35 0
-43 -36 c-85 -73 -104 -164 -52 -246 35 -55 100 -96 170 -107 28 -4 54 -11 58
-14 4 -5 -359 -832 -372 -845 -2 -2 -22 15 -45 38 -81 81 -244 136 -364 123
l-47 -6 276 553 276 552 37 -6 c20 -3 52 -6 71 -6z m-3763 -1335 c5 -78 3 -96
-14 -135 l-21 -45 0 140 c-1 77 -3 178 -6 225 l-4 85 19 -90 c11 -49 22 -130
26 -180z m3306 68 c57 -17 126 -77 137 -118 14 -51 -7 -96 -59 -125 -38 -21
-58 -25 -130 -25 -70 0 -93 4 -130 24 -112 58 -148 136 -94 200 33 40 55 51
113 60 54 9 99 5 163 -16z m-382 -391 c-13 -5 -38 15 -52 41 -8 15 -1 13 26
-9 20 -16 31 -31 26 -32z"/>
</g>
</svg>
